<svg width="72" height="72" viewBox="0 0 72 72" xmlns="http://www.w3.org/2000/svg">
  <defs>
    <linearGradient id="ga" x1="10%" y1="0%" x2="90%" y2="100%">
      <stop offset="0%" stop-color="#4ADE80"></stop>
      <stop offset="100%" stop-color="#16A34A"></stop>
    </linearGradient>
    <linearGradient id="g2a" x1="0%" y1="0%" x2="100%" y2="100%">
      <stop offset="0%" stop-color="#A7F3D0"></stop>
      <stop offset="100%" stop-color="#34D399"></stop>
    </linearGradient>
  </defs>
  <g transform="rotate(-12 36 36)">
    <rect x="18" y="8" width="30" height="54" rx="12" fill="url(#ga)"></rect>
    <path d="M18 20 C18 12.8 23.8 8 31 8 L37 8 C41 8 41 16 34 17 C25 18.5 18 24 18 34 Z" fill="url(#g2a)"></path>
    <rect x="27" y="12.5" width="10" height="4" rx="2" fill="#0A1F14" fill-opacity="0.5"></rect>
    <rect x="22" y="28.5" width="7.333333333333334" height="7.333333333333334" fill="none" stroke="white" stroke-width="0.7822222222222223"></rect><rect x="24.444444444444443" y="30.944444444444443" width="2.4444444444444446" height="2.4444444444444446" fill="white"></rect><rect x="36.66666666666667" y="28.5" width="7.333333333333334" height="7.333333333333334" fill="none" stroke="white" stroke-width="0.7822222222222223"></rect><rect x="39.111111111111114" y="30.944444444444443" width="2.4444444444444446" height="2.4444444444444446" fill="white"></rect><rect x="22" y="43.16666666666667" width="7.333333333333334" height="7.333333333333334" fill="none" stroke="white" stroke-width="0.7822222222222223"></rect><rect x="24.444444444444443" y="45.611111111111114" width="2.4444444444444446" height="2.4444444444444446" fill="white"></rect><rect x="31.77777777777778" y="28.5" width="2.4444444444444446" height="2.4444444444444446" fill="white"></rect><rect x="34.22222222222222" y="28.5" width="2.4444444444444446" height="2.4444444444444446" fill="white"></rect><rect x="29.333333333333336" y="30.944444444444443" width="2.4444444444444446" height="2.4444444444444446" fill="white"></rect><rect x="31.77777777777778" y="30.944444444444443" width="2.4444444444444446" height="2.4444444444444446" fill="white"></rect><rect x="34.22222222222222" y="30.944444444444443" width="2.4444444444444446" height="2.4444444444444446" fill="white"></rect><rect x="29.333333333333336" y="33.388888888888886" width="2.4444444444444446" height="2.4444444444444446" fill="white"></rect><rect x="34.22222222222222" y="35.833333333333336" width="2.4444444444444446" height="2.4444444444444446" fill="white"></rect><rect x="36.66666666666667" y="35.833333333333336" width="2.4444444444444446" height="2.4444444444444446" fill="white"></rect><rect x="39.111111111111114" y="35.833333333333336" width="2.4444444444444446" height="2.4444444444444446" fill="white"></rect><rect x="41.55555555555556" y="35.833333333333336" width="2.4444444444444446" height="2.4444444444444446" fill="white"></rect><rect x="22" y="38.27777777777778" width="2.4444444444444446" height="2.4444444444444446" fill="white"></rect><rect x="24.444444444444443" y="38.27777777777778" width="2.4444444444444446" height="2.4444444444444446" fill="white"></rect><rect x="34.22222222222222" y="38.27777777777778" width="2.4444444444444446" height="2.4444444444444446" fill="white"></rect><rect x="36.66666666666667" y="38.27777777777778" width="2.4444444444444446" height="2.4444444444444446" fill="white"></rect><rect x="39.111111111111114" y="38.27777777777778" width="2.4444444444444446" height="2.4444444444444446" fill="white"></rect><rect x="22" y="40.72222222222222" width="2.4444444444444446" height="2.4444444444444446" fill="white"></rect><rect x="24.444444444444443" y="40.72222222222222" width="2.4444444444444446" height="2.4444444444444446" fill="white"></rect><rect x="29.333333333333336" y="40.72222222222222" width="2.4444444444444446" height="2.4444444444444446" fill="white"></rect><rect x="34.22222222222222" y="40.72222222222222" width="2.4444444444444446" height="2.4444444444444446" fill="white"></rect><rect x="34.22222222222222" y="43.16666666666667" width="2.4444444444444446" height="2.4444444444444446" fill="white"></rect><rect x="41.55555555555556" y="43.16666666666667" width="2.4444444444444446" height="2.4444444444444446" fill="white"></rect><rect x="31.77777777777778" y="45.611111111111114" width="2.4444444444444446" height="2.4444444444444446" fill="white"></rect><rect x="34.22222222222222" y="45.611111111111114" width="2.4444444444444446" height="2.4444444444444446" fill="white"></rect><rect x="36.66666666666667" y="48.05555555555556" width="2.4444444444444446" height="2.4444444444444446" fill="white"></rect><rect x="39.111111111111114" y="48.05555555555556" width="2.4444444444444446" height="2.4444444444444446" fill="white"></rect><rect x="41.55555555555556" y="48.05555555555556" width="2.4444444444444446" height="2.4444444444444446" fill="white"></rect>
    <circle cx="48" cy="12" r="8" fill="white"></circle>
    <g transform="translate(48,11.62)">
      <path d="M0 -3.8 C 2.888 -3.8 3.8 -1.3679999999999999 3.8 0.608 L 3.8 2.128 L 4.712 3.496 L -4.712 3.496 L -3.8 2.128 L -3.8 0.608 C -3.8 -1.3679999999999999 -2.888 -3.8 0 -3.8 Z" fill="#16A34A"></path>
      <circle cx="0" cy="4.712" r="0.988" fill="#16A34A"></circle>
    </g>
  </g>
</svg>
